<?xml version="1.0" standalone="no"?>
<!DOCTYPE svg PUBLIC "-//W3C//DTD SVG 20010904//EN"
 "http://www.w3.org/TR/2001/REC-SVG-20010904/DTD/svg10.dtd" >
<svg version="1.0" xmlns="http://www.w3.org/2000/svg"
 width="581.000000pt" height="600.000000pt" viewBox="0 0 581.000000 600.000000"
 preserveAspectRatio="xMidYMid meet">
<metadata>
Created by potrace 1.16, written by Peter Selinger 2001-2019
</metadata>
<g transform="translate(0.000000,600.000000) scale(0.100000,-0.100000)"
fill="#f2f2f2" stroke="none">
<path d="M3200 5734 c-267 -39 -484 -98 -770 -211 -478 -189 -824 -412 -1123
-724 l-136 -141 -11 44 c-25 97 -42 137 -76 176 -67 79 -150 68 -250 -32 -134
-134 -262 -483 -333 -907 -41 -244 -51 -367 -51 -654 0 -344 25 -517 114 -806
25 -79 44 -145 42 -146 -1 -1 -24 5 -51 14 -72 22 -203 22 -237 0 -63 -43 -74
-150 -28 -267 101 -255 515 -665 978 -968 305 -200 608 -330 922 -397 69 -15
131 -29 139 -31 9 -3 -7 -26 -48 -69 -106 -110 -124 -187 -60 -260 51 -57 116
-75 278 -75 150 0 248 13 437 60 406 101 858 306 1194 543 150 105 305 246
441 399 67 76 69 77 75 50 26 -115 55 -181 98 -222 22 -19 37 -24 79 -24 62 0
104 20 158 76 144 148 269 514 351 1028 21 133 23 175 23 525 l0 380 -32 150
c-18 83 -52 213 -76 290 -25 77 -44 141 -43 141 0 1 33 -6 71 -16 131 -35 216
-21 255 42 17 27 20 46 18 108 -3 62 -10 88 -41 153 -118 242 -498 620 -892
886 -371 251 -687 388 -1058 460 l-88 17 64 72 c97 108 114 157 81 228 -21 44
-88 84 -168 101 -56 12 -187 15 -246 7z m258 -182 c16 -11 -31 -77 -105 -148
l-54 -51 -132 -7 c-73 -4 -172 -14 -222 -22 -421 -71 -812 -389 -940 -764 -78
-230 -49 -447 101 -741 101 -198 235 -392 403 -584 56 -63 61 -73 54 -100 -10
-39 -9 -156 2 -224 l8 -53 -289 5 c-234 4 -311 8 -407 26 -263 47 -368 84
-462 161 -174 145 -248 332 -248 630 0 173 19 256 88 396 143 292 555 733 900
964 303 203 711 396 1001 475 139 38 274 54 302 37z m-94 -602 c263 -38 557
-117 775 -207 360 -149 795 -437 1062 -702 94 -94 189 -216 189 -244 0 -15
-115 -1 -193 23 -56 17 -72 27 -85 52 -130 241 -366 472 -597 583 -232 113
-544 154 -755 100 -117 -30 -239 -96 -324 -176 -191 -179 -397 -525 -512 -862
-36 -107 -52 -141 -68 -147 -12 -4 -43 -16 -69 -25 -29 -10 -72 -39 -107 -72
l-59 -54 -47 73 c-63 98 -180 308 -217 388 -45 98 -113 286 -143 397 -23 83
-26 111 -21 183 11 161 72 292 194 412 154 153 356 263 551 298 67 13 263 3
426 -20z m-2310 -366 l17 -71 -56 -100 c-65 -116 -126 -282 -152 -410 -25
-130 -23 -356 6 -490 75 -353 242 -588 504 -708 141 -64 280 -85 574 -85 214
0 346 13 546 54 l117 23 23 -26 c38 -45 76 -69 145 -92 37 -12 71 -25 76 -29
10 -10 -121 -248 -219 -395 -100 -151 -183 -251 -311 -376 -122 -118 -169
-143 -324 -175 -109 -22 -193 -14 -329 32 -248 83 -427 218 -545 413 -128 212
-275 645 -330 971 -64 382 -41 953 53 1322 34 135 60 204 103 278 l32 55 26
-60 c15 -33 35 -92 44 -131z m3059 -298 c106 -36 234 -97 308 -147 97 -65 217
-192 268 -281 138 -247 274 -651 332 -988 16 -96 22 -184 26 -383 8 -386 -15
-635 -88 -925 -38 -154 -104 -312 -130 -312 -15 0 -40 60 -65 157 l-24 94 24
38 c79 125 144 288 178 444 29 136 31 372 5 496 -87 405 -285 658 -592 757
-125 40 -248 54 -470 54 -223 0 -302 -7 -521 -46 l-151 -27 -55 45 c-36 30
-80 54 -124 68 -38 12 -72 25 -76 29 -10 9 114 236 199 365 169 259 346 454
470 519 157 82 326 97 486 43z m-327 -1147 c127 -12 337 -51 428 -79 118 -37
254 -147 325 -265 132 -217 146 -598 32 -840 -35 -75 -138 -228 -239 -354 -92
-115 -359 -390 -451 -465 -348 -283 -880 -556 -1268 -650 -101 -24 -273 -44
-273 -31 0 16 62 94 116 146 l59 56 131 6 c240 12 405 54 584 148 124 65 215
133 322 241 137 139 244 317 276 463 19 84 24 195 13 287 -29 251 -226 611
-518 950 l-84 96 12 46 c11 43 9 106 -7 214 l-6 42 219 0 c121 0 269 -5 329
-11z m-538 -436 c196 -302 372 -739 372 -922 0 -80 -28 -197 -66 -277 -52
-111 -252 -292 -407 -370 -37 -19 -109 -49 -160 -66 l-92 -30 -195 5 c-445 12
-912 142 -1322 368 -403 222 -765 509 -907 718 -64 94 -64 94 5 89 32 -2 93
-15 134 -27 l75 -23 40 -71 c122 -217 340 -429 554 -537 76 -38 239 -92 336
-111 41 -8 133 -14 225 -14 177 0 244 15 381 86 250 130 488 477 664 969 54
151 59 160 89 160 36 1 100 35 155 84 28 25 55 46 60 46 5 0 31 -35 59 -77z"/>
</g>
</svg>
